<svg id="Layer_1" data-name="Layer 1" xmlns="http://www.w3.org/2000/svg" viewBox="0 0 32 32"><defs><style>.cls-1,.cls-4{fill:#fff;}.cls-2{fill:#d5a957;}.cls-3{fill:none;stroke:#fff;stroke-miterlimit:10;}.cls-4{font-size:3px;font-family:CenturyGothic, Century Gothic;}</style></defs><rect class="cls-1" width="32" height="32"/><path class="cls-2" d="M18,7.27a8.62,8.62,0,1,0,7,7A8.63,8.63,0,0,0,18,7.27Zm1.88,8.38-.65.61A.63.63,0,0,1,19.9,15.65Zm-6.25.49L13,15.06C13.51,15.34,13.8,15.82,13.65,16.14Zm7.22,2.67a1,1,0,0,1-1.16-.46l-1.89.75.84.21a1.88,1.88,0,0,1-1-.15l-.76.48.22,4.7H15.94l.44-6.09-.79-.77a2,2,0,0,1-.93-.1l.8,0-1.55-1a1,1,0,0,1-1.15.12l1.06-.18-1.09-.7,1.22.68h0a22.93,22.93,0,0,1,2.44,1.54l.15-2.09a5,5,0,0,0-.89-1.19A10.71,10.71,0,0,0,13.9,14a2.79,2.79,0,0,1,2.69,1.41l.07-1,.07,1.49a2.27,2.27,0,0,1,.92-1.11h0a3.8,3.8,0,0,1,1.69-.58,10,10,0,0,0-1.67.75,8.54,8.54,0,0,0-.93,1.18l.05,1.11c.47-.54,1.95-.94,3.73-.94l-1.38.46.44.19a4.68,4.68,0,0,1-1-.27l-1,.38-.61.43a.2.2,0,0,0-.14.2l.08,1.65a25.79,25.79,0,0,1,2.77-1.05h0c.46-.15.94-.31,1.47-.46l-1.34.52Zm-6.52-3.16a.88.88,0,0,1,.45,1.11Zm4,.35-.68.64A.67.67,0,0,1,18.35,16ZM21,17l-1,1.1C20,17.7,20.41,17.21,21,17Zm-1.56.32-.77,1.19A1.08,1.08,0,0,1,19.45,17.34Z"/><path class="cls-3" d="M18,7.27a8.62,8.62,0,1,0,7,7A8.63,8.63,0,0,0,18,7.27Zm1.88,8.38-.65.61A.63.63,0,0,1,19.9,15.65Zm-6.25.49L13,15.06C13.51,15.34,13.8,15.82,13.65,16.14Zm7.22,2.67a1,1,0,0,1-1.16-.46l-1.89.75.84.21a1.88,1.88,0,0,1-1-.15l-.76.48.22,4.7H15.94l.44-6.09-.79-.77a2,2,0,0,1-.93-.1l.8,0-1.55-1a1,1,0,0,1-1.15.12l1.06-.18-1.09-.7,1.22.68h0a22.93,22.93,0,0,1,2.44,1.54l.15-2.09a5,5,0,0,0-.89-1.19A10.71,10.71,0,0,0,13.9,14a2.79,2.79,0,0,1,2.69,1.41l.07-1,.07,1.49a2.27,2.27,0,0,1,.92-1.11h0a3.8,3.8,0,0,1,1.69-.58,10,10,0,0,0-1.67.75,8.54,8.54,0,0,0-.93,1.18l.05,1.11c.47-.54,1.95-.94,3.73-.94l-1.38.46.44.19a4.68,4.68,0,0,1-1-.27l-1,.38-.61.43a.2.2,0,0,0-.14.2l.08,1.65a25.79,25.79,0,0,1,2.77-1.05h0c.46-.15.94-.31,1.47-.46l-1.34.52Zm-6.52-3.16a.88.88,0,0,1,.45,1.11Zm4,.35-.68.64A.67.67,0,0,1,18.35,16ZM21,17l-1,1.1C20,17.7,20.41,17.21,21,17Zm-1.56.32-.77,1.19A1.08,1.08,0,0,1,19.45,17.34Z"/><path class="cls-2" d="M18,7.27a8.62,8.62,0,1,0,7,7A8.63,8.63,0,0,0,18,7.27Zm1.88,8.38-.65.61A.63.63,0,0,1,19.9,15.65Zm-6.25.49L13,15.06C13.51,15.34,13.8,15.82,13.65,16.14Zm7.22,2.67a1,1,0,0,1-1.16-.46l-1.89.75.84.21a1.88,1.88,0,0,1-1-.15l-.76.48.22,4.7H15.94l.44-6.09-.79-.77a2,2,0,0,1-.93-.1l.8,0-1.55-1a1,1,0,0,1-1.15.12l1.06-.18-1.09-.7,1.22.68h0a22.93,22.93,0,0,1,2.44,1.54l.15-2.09a5,5,0,0,0-.89-1.19A10.71,10.71,0,0,0,13.9,14a2.79,2.79,0,0,1,2.69,1.41l.07-1,.07,1.49a2.27,2.27,0,0,1,.92-1.11h0a3.8,3.8,0,0,1,1.69-.58,10,10,0,0,0-1.67.75,8.54,8.54,0,0,0-.93,1.18l.05,1.11c.47-.54,1.95-.94,3.73-.94l-1.38.46.44.19a4.68,4.68,0,0,1-1-.27l-1,.38-.61.43a.2.2,0,0,0-.14.2l.08,1.65a25.79,25.79,0,0,1,2.77-1.05h0c.46-.15.94-.31,1.47-.46l-1.34.52Zm-6.52-3.16a.88.88,0,0,1,.45,1.11Zm4,.35-.68.64A.67.67,0,0,1,18.35,16ZM21,17l-1,1.1C20,17.7,20.41,17.21,21,17Zm-1.56.32-.77,1.19A1.08,1.08,0,0,1,19.45,17.34Z"/><text class="cls-4" transform="translate(13 13.12)">TAWI</text></svg>